<svg width="16" height="16" viewBox="0 0 16 16" fill="none" xmlns="http://www.w3.org/2000/svg">
<path d="M7.73659 1.05875C7.81954 0.803449 8.18072 0.803449 8.26368 1.05875L9.64868 5.32134C9.789 5.75322 10.1915 6.04562 10.6456 6.04562H15.1275C15.396 6.04562 15.5076 6.38913 15.2904 6.54692L11.6644 9.18134C11.297 9.44826 11.1433 9.92138 11.2836 10.3533L12.6686 14.6158C12.7516 14.8711 12.4594 15.0834 12.2422 14.9257L8.61624 12.2912C8.24887 12.0243 7.7514 12.0243 7.38402 12.2912L3.75805 14.9257C3.54087 15.0834 3.24867 14.8711 3.33162 14.6158L4.71662 10.3533C4.85694 9.92138 4.70322 9.44826 4.33584 9.18134L0.709867 6.54692C0.492692 6.38913 0.604305 6.04562 0.872746 6.04562H5.3547C5.8088 6.04562 6.21126 5.75322 6.35159 5.32134L7.73659 1.05875Z" stroke="#FFB800" stroke-width="0.771085"/>
</svg>
