<svg width="17" height="16" viewBox="0 0 17 16" fill="none" xmlns="http://www.w3.org/2000/svg">
<path d="M7.73124 0.939613C7.92961 0.329105 8.79331 0.329105 8.99168 0.939613L10.3767 5.2022C10.4654 5.47523 10.7198 5.66008 11.0069 5.66008H15.4888C16.1308 5.66008 16.3977 6.48151 15.8783 6.85883L12.2524 9.49325C12.0201 9.66199 11.9229 9.96109 12.0116 10.2341L13.3966 14.4967C13.595 15.1072 12.8963 15.6149 12.3769 15.2376L8.75096 12.6031C8.51871 12.4344 8.20421 12.4344 7.97196 12.6031L4.34599 15.2376C3.82666 15.6149 3.12791 15.1072 3.32628 14.4967L4.71127 10.2341C4.79999 9.96109 4.7028 9.66199 4.47055 9.49325L0.844579 6.85883C0.32525 6.48151 0.592149 5.66008 1.23407 5.66008H5.71602C6.0031 5.66008 6.25753 5.47523 6.34624 5.2022L7.73124 0.939613Z" fill="#FFB800"/>
</svg>
