<svg width="71" height="33" viewBox="0 0 71 33" fill="none" xmlns="http://www.w3.org/2000/svg">
<path d="M1.71897 0.51969V3.41796H0V5.29683H1.71897V10.094C1.71897 12.3326 3.15811 13.2521 5.017 13.2521C5.95644 13.2521 6.87589 13.0922 7.59546 12.8323V10.9934C6.99582 11.2333 6.3562 11.3732 5.65662 11.3732C4.41736 11.3732 3.8377 10.9534 3.8377 9.6942V5.29683H7.31562V3.41796H3.8377V0L1.71897 0.51969Z" fill="#222222"/>
<path d="M8.73509 8.21509C8.73509 11.5331 11.2536 13.2721 13.932 13.2721C16.6304 13.2721 19.1289 11.5331 19.1289 8.21509C19.1289 4.89707 16.6304 3.15811 13.932 3.15811C11.2536 3.15811 8.73509 4.89707 8.73509 8.21509ZM16.9502 8.21509C16.9502 10.094 15.7109 11.3132 13.932 11.3132C12.1331 11.3132 10.8938 10.094 10.8938 8.21509C10.8938 6.33621 12.1331 5.11694 13.932 5.11694C15.7109 5.11694 16.9502 6.33621 16.9502 8.21509Z" fill="#222222"/>
<path d="M23.1015 4.99701V3.41796H21.2026V13.0122H23.3414V7.1957C23.921 5.83651 25.4201 5.07696 27.1391 5.31682V3.21808C25.4001 3.05817 23.8411 3.81772 23.1015 4.99701Z" fill="#222222"/>
<path d="M29.4563 0.51969V3.41796H27.7373V5.29683H29.4563V10.094C29.4563 12.3326 30.8954 13.2521 32.7543 13.2521C33.6937 13.2521 34.6132 13.0922 35.3328 12.8323V10.9934C34.7331 11.2333 34.0935 11.3732 33.3939 11.3732C32.1547 11.3732 31.575 10.9534 31.575 9.6942V5.29683H35.0529V3.41796H31.575V0L29.4563 0.51969Z" fill="#222222"/>
<path d="M44.0279 3.41796V9.77415C43.4882 10.5537 42.5688 11.3732 41.3495 11.3732C39.9303 11.3732 39.1108 10.6336 39.1108 9.07457V3.41796H36.9721V9.3544C36.9721 11.633 38.3913 13.2721 40.9297 13.2721C42.3889 13.2721 43.5682 12.5325 44.2677 11.693V13.0122H46.1666V3.41796H44.0279Z" fill="#222222"/>
<path d="M48.2427 8.21509C48.2427 10.9734 50.1016 13.2721 52.9999 13.2721C54.6789 13.2721 55.7982 12.5125 56.4578 11.733V12.9523C56.4578 15.111 54.8388 15.7906 52.9399 15.7906C51.6407 15.7906 50.3614 15.4508 49.2621 14.8111V16.77C50.4014 17.3496 51.7606 17.6694 53.2197 17.6694C55.9581 17.6694 58.5965 16.3502 58.5965 12.8923V3.41796H56.6777V4.91706C55.9381 3.99761 54.7988 3.15811 52.9999 3.15811C50.1016 3.15811 48.2427 5.45674 48.2427 8.21509ZM56.4378 7.03579V9.51431C55.9781 10.4937 54.8787 11.3932 53.3796 11.3932C51.6607 11.3932 50.4014 10.094 50.4014 8.21509C50.4014 6.33621 51.6607 5.03699 53.3796 5.03699C54.8787 5.03699 55.9781 5.99641 56.4378 7.03579Z" fill="#222222"/>
<path d="M69.4514 10.7935V7.3556C69.4514 4.45733 67.7325 3.15811 65.0141 3.15811C63.475 3.15811 62.0958 3.53788 61.3363 3.79773V5.75656C62.1958 5.37678 63.3751 5.017 64.7942 5.017C66.4332 5.017 67.3127 5.8565 67.3127 7.05578V7.39558C66.5532 7.23567 65.6337 7.11574 64.8142 7.11574C62.8154 7.11574 60.5368 7.87529 60.5368 10.3338C60.5368 12.3126 62.1558 13.2721 63.8947 13.2721C65.3938 13.2721 66.5731 12.7923 67.5126 12.0328C67.8524 12.8123 68.552 13.1521 69.4314 13.1521C69.9111 13.1521 70.3909 13.0722 70.7906 12.9123V11.3732C70.5907 11.4332 70.3709 11.4931 70.151 11.4931C69.7712 11.4931 69.4514 11.3332 69.4514 10.7935ZM65.2339 8.61485C65.9135 8.61485 66.733 8.73477 67.3127 8.8547V10.4737C66.5532 11.2333 65.5537 11.6131 64.5344 11.6131C63.5749 11.6131 62.7354 11.1333 62.7354 10.1939C62.7354 8.99462 64.0147 8.61485 65.2339 8.61485Z" fill="#222222"/>
<path d="M1.71897 20.2476V23.1459H0V25.0248H1.71897V29.8219C1.71897 32.0606 3.15811 32.98 5.017 32.98C5.95644 32.98 6.87589 32.8201 7.59546 32.5603V30.7214C6.99582 30.9612 6.3562 31.1011 5.65662 31.1011C4.41736 31.1011 3.8377 30.6814 3.8377 29.4221V25.0248H7.31562V23.1459H3.8377V19.7279L1.71897 20.2476Z" fill="#222222"/>
<path d="M8.73509 27.943C8.73509 31.321 11.2336 33 14.1718 33C15.511 33 16.7303 32.7601 17.6098 32.3404V30.5015C16.7903 30.9013 15.7309 31.1811 14.5716 31.1811C12.8126 31.1811 11.1337 30.4615 10.8938 28.7425H18.1095C18.7291 25.9642 17.4099 22.886 13.5922 22.886C11.3735 22.886 8.73509 24.4651 8.73509 27.943ZM16.1906 27.1435H10.8738C10.9538 25.5245 12.253 24.665 13.6921 24.665C15.7909 24.665 16.3106 26.304 16.1906 27.1435Z" fill="#222222"/>
<path d="M28.4603 30.5215V27.0835C28.4603 24.1853 26.7413 22.886 24.023 22.886C22.4839 22.886 21.1047 23.2658 20.3452 23.5257V25.4845C21.2047 25.1047 22.384 24.7449 23.8031 24.7449C25.4421 24.7449 26.3216 25.5844 26.3216 26.7837V27.1235C25.5621 26.9636 24.6426 26.8437 23.8231 26.8437C21.8243 26.8437 19.5457 27.6032 19.5457 30.0618C19.5457 32.0406 21.1647 33 22.9036 33C24.4027 33 25.582 32.5203 26.5215 31.7607C26.8613 32.5403 27.5609 32.8801 28.4403 32.8801C28.92 32.8801 29.3998 32.8001 29.7995 32.6402V31.1011C29.5996 31.1611 29.3798 31.2211 29.1599 31.2211C28.7801 31.2211 28.4603 31.0612 28.4603 30.5215ZM24.2428 28.3428C24.9224 28.3428 25.7419 28.4627 26.3216 28.5826V30.2017C25.5621 30.9612 24.5627 31.341 23.5433 31.341C22.5838 31.341 21.7443 30.8613 21.7443 29.9218C21.7443 28.7226 23.0236 28.3428 24.2428 28.3428Z" fill="#222222"/>
<path d="M33.4134 32.7402V26.264C33.9132 25.6244 34.7926 24.7849 35.9519 24.7849C37.1112 24.7849 37.8508 25.5644 37.8508 26.8037V32.7402H39.9895V26.7437C39.9895 26.5239 39.9695 26.304 39.9495 26.0841C40.4492 25.4845 41.2688 24.7849 42.3281 24.7849C43.4874 24.7849 44.227 25.5644 44.227 26.8037V32.7402H46.3657V26.7437C46.3657 24.7649 45.2664 22.886 42.7279 22.886C41.3287 22.886 40.2094 23.5856 39.3699 24.4251C38.8102 23.4857 37.8108 22.886 36.3717 22.886C34.8126 22.886 33.6933 23.7655 33.1736 24.3452V23.1459H31.2747V32.7402H33.4134Z" fill="#222222"/>
</svg>
